<?xml version="1.0" encoding="UTF-8"?>
<svg version="1.1" xmlns="http://www.w3.org/2000/svg" width="500" height="500">
<path d="M0 0 C6.84593072 4.80371124 11.32366435 10.34635743 12.83203125 18.7109375 C13.70597779 28.20334144 12.11899868 35.35439799 7.14453125 43.4609375 C-0.09890077 50.50860109 -7.01379271 53.30679119 -17.16796875 53.7109375 C-25.04407816 53.31957803 -31.71369606 49.48258995 -36.99609375 43.71484375 C-43.63834154 35.18632656 -43.98280006 27.159344 -43.16796875 16.7109375 C-41.58828868 9.92871828 -37.61023047 4.94380773 -32.16796875 0.7109375 C-21.83317266 -5.64447916 -10.60846675 -6.30773699 0 0 Z M-26.96875 12.3671875 C-31.03988061 16.95328212 -32.49457893 20.3405217 -32.37890625 26.65625 C-31.88941127 31.42429367 -29.63615918 34.50206427 -26.10546875 37.5234375 C-20.90739126 41.39434627 -16.54155148 41.45065156 -10.16796875 40.7109375 C-5.38758674 39.02002552 -2.17151771 36.32496634 0.39453125 31.9609375 C2.32694444 27.40903088 2.18657437 23.42125198 0.83203125 18.7109375 C-1.61933862 13.89898923 -4.37825832 11.19790253 -9.16796875 8.7109375 C-15.9099256 7.07981891 -21.67492206 7.4982438 -26.96875 12.3671875 Z " fill="#4A87CE" transform="translate(297.16796875,190.2890625)"/>
<path d="M0 0 C6.9960118 5.87788088 10.77859195 10.73959632 11.75390625 19.88671875 C12.20690211 28.14653942 11.5200627 35.34679065 6.3515625 42.11328125 C0.39093023 48.67247073 -6.35758302 52.41006936 -15.26171875 53.10546875 C-23.60905927 53.13279229 -30.41865106 50.72366254 -36.6484375 45.11328125 C-43.02298425 37.48293514 -45.14072638 30.24433908 -44.9609375 20.3671875 C-44.2252148 12.70647484 -40.38236907 6.19046295 -34.6484375 1.11328125 C-23.99681406 -6.15090011 -10.89363437 -7.76050944 0 0 Z M-28.20703125 11.47265625 C-32.08032238 15.9321131 -33.91365934 19.61908094 -33.5859375 25.48828125 C-32.89078829 30.33815945 -31.09762587 33.65472008 -27.6484375 37.11328125 C-22.67672341 40.69754025 -17.56941267 40.82688412 -11.6484375 40.11328125 C-6.56265784 38.22965915 -3.04859498 35.63356472 -0.3984375 30.86328125 C0.9687852 25.85013136 0.93280151 21.76012511 -0.7734375 16.92578125 C-4.30807185 11.62382972 -8.45607965 8.59406247 -14.6484375 7.11328125 C-19.74062899 7.11328125 -24.26978975 8.03867118 -28.20703125 11.47265625 Z " fill="#4A87CE" transform="translate(234.6484375,190.88671875)"/>
<path d="M0 0 C2 2 2 2 2.4375 5.4375 C2 9 2 9 -0.25 10.875 C-2.51913837 11.80328388 -4.63605181 12.40901295 -7 13 C-8.45389388 15.90778776 -8.18398159 18.52073498 -8.24609375 21.765625 C-8.27905064 23.14453716 -8.31226196 24.52344325 -8.34570312 25.90234375 C-8.39296307 28.07238326 -8.43736189 30.24240153 -8.47680664 32.41259766 C-8.51679492 34.50970758 -8.56828991 36.6063039 -8.62109375 38.703125 C-8.6461499 39.95770508 -8.67120605 41.21228516 -8.69702148 42.50488281 C-9 46 -9 46 -10.14868164 49.14355469 C-11.20869434 52.70023623 -10.46098254 53.67358389 -9 57 C-8.76903096 59.67206065 -8.62896057 62.2519183 -8.5859375 64.92578125 C-8.56657135 65.67337204 -8.5472052 66.42096283 -8.5272522 67.19120789 C-8.46776082 69.56485806 -8.42119408 71.93855754 -8.375 74.3125 C-8.33679211 75.92775482 -8.29773875 77.54298987 -8.2578125 79.15820312 C-8.1620847 83.1053071 -8.07794233 87.05250639 -8 91 C-6.3603125 91.185625 -6.3603125 91.185625 -4.6875 91.375 C-1 92 -1 92 2 94 C2.36328125 95.875 2.36328125 95.875 2.3125 98 C2.30863281 98.70125 2.30476563 99.4025 2.30078125 100.125 C2 102 2 102 0 104 C-4.95181042 104.76592751 -8.96191064 104.52848186 -13.4375 102.25 C-16.75814544 99.33431132 -18.60145982 97.19562054 -20 93 C-20.15322359 90.41669771 -20.25706889 87.85507761 -20.31640625 85.26953125 C-20.33718735 84.51911057 -20.35796844 83.76868988 -20.37937927 82.99552917 C-20.44469926 80.60127816 -20.50367792 78.20691861 -20.5625 75.8125 C-20.60570193 74.18813987 -20.64931676 72.56379067 -20.69335938 70.93945312 C-20.80036263 66.95974629 -20.90167937 62.97993042 -21 59 C-21.95712891 58.81824219 -21.95712891 58.81824219 -22.93359375 58.6328125 C-23.75988281 58.46523437 -24.58617187 58.29765625 -25.4375 58.125 C-26.26121094 57.96257812 -27.08492187 57.80015625 -27.93359375 57.6328125 C-28.61550781 57.42398438 -29.29742187 57.21515625 -30 57 C-31.50662097 53.98675805 -31.17770373 51.31713623 -31 48 C-29 46 -29 46 -25.4375 45 C-23.7359375 44.505 -23.7359375 44.505 -22 44 C-20.5487675 41.097535 -20.83480842 38.50888793 -20.7890625 35.26953125 C-20.76097272 33.89517081 -20.73230814 32.52082203 -20.703125 31.14648438 C-20.66203832 28.9852762 -20.6251445 26.82428052 -20.59863281 24.6628418 C-20.57078998 22.57294906 -20.52490242 20.48403765 -20.4765625 18.39453125 C-20.4468335 16.52051636 -20.4468335 16.52051636 -20.41650391 14.60864258 C-19.78608224 9.14658944 -18.48627041 5.2277886 -14.125 1.625 C-9.05059505 -1.01369057 -5.58212239 -1.36451881 0 0 Z " fill="#211D1D" transform="translate(181,163)"/>
<path d="M0 0 C4.78467481 0.09418651 7.66421246 0.90846336 11.47265625 3.7578125 C14.94813898 8.11483167 15.06817157 13.3402427 15.12109375 18.69921875 C15.14622666 20.07878076 15.17162502 21.45833796 15.19726562 22.83789062 C15.22610688 24.99063126 15.25015836 27.14328905 15.26879883 29.29614258 C15.2904163 31.38923608 15.32981375 33.48143434 15.37109375 35.57421875 C15.38454834 36.81905029 15.39800293 38.06388184 15.41186523 39.34643555 C15.55884139 42.39325291 15.55884139 42.39325291 17.14477539 44.29614258 C19.52233492 45.92329685 22.07190994 46.60340737 24.8125 47.4375 C25.8125 48.4375 25.8125 48.4375 26.0625 51.8125 C25.8125 55.4375 25.8125 55.4375 24.75 57.3125 C21.92243032 58.95431465 19.02418718 59.02907735 15.8125 59.4375 C15.79791748 60.43604004 15.78333496 61.43458008 15.76831055 62.46337891 C15.71009932 66.18736606 15.63286923 69.91076292 15.55004883 73.63427734 C15.51690637 75.2422524 15.48884146 76.85034081 15.46606445 78.45849609 C15.43232033 80.77750705 15.37999806 83.09548931 15.32421875 85.4140625 C15.31463387 86.48317368 15.31463387 86.48317368 15.30485535 87.57388306 C15.16917414 92.2367468 14.25743862 95.4685533 11.8125 99.4375 C7.71750904 103.13297965 5.28394182 104.58523661 -0.1875 104.625 C-1.074375 104.63917969 -1.96125 104.65335937 -2.875 104.66796875 C-5.1875 104.4375 -5.1875 104.4375 -7.1875 102.4375 C-7.48828125 100.5625 -7.48828125 100.5625 -7.5 98.4375 C-7.51675781 97.73625 -7.53351563 97.035 -7.55078125 96.3125 C-7.43089844 95.69375 -7.31101562 95.075 -7.1875 94.4375 C-3.74299263 92.14116176 -1.24937717 91.89733515 2.8125 91.4375 C2.83231934 90.43895996 2.85213867 89.44041992 2.87255859 88.41162109 C2.94894264 84.68774268 3.037608 80.96423839 3.12988281 77.24072266 C3.16803759 75.63272518 3.20291348 74.02464627 3.234375 72.41650391 C3.2803206 70.09768684 3.33826381 67.7794238 3.3984375 65.4609375 C3.41576431 64.39182632 3.41576431 64.39182632 3.43344116 63.30111694 C3.52983947 60.00085529 3.8374285 57.36842573 4.96337891 54.24853516 C6.02412709 50.7369036 5.27513439 49.71622581 3.8125 46.4375 C3.59805335 44.0440266 3.48137812 41.64086714 3.43359375 39.23828125 C3.41659927 38.56202194 3.3996048 37.88576263 3.38209534 37.18901062 C3.32925571 35.04276694 3.28878273 32.89654 3.25 30.75 C3.20602541 28.59284215 3.1593433 26.43583045 3.10719299 24.27885437 C3.0607704 22.32967374 3.02320908 20.38028808 2.98608398 18.4309082 C3.01441541 15.51242762 3.01441541 15.51242762 1.8125 13.4375 C-0.03764474 12.56984482 -0.03764474 12.56984482 -2.1875 11.875 C-6.09758174 10.52741826 -6.09758174 10.52741826 -7.1875 9.4375 C-7.375 6 -7.375 6 -7.1875 2.4375 C-4.64190061 -0.10809939 -3.53805377 0.08296126 0 0 Z " fill="#211D1D" transform="translate(324.1875,162.5625)"/>
<path d="M0 0 C4.43293575 2.26823252 6.4963127 4.63325244 8.02734375 9.31640625 C8.79294388 14.70795648 8.07510638 18.69221467 5.02734375 23.31640625 C0.37219829 27.51739118 -2.50301584 28.67076715 -8.65234375 28.6015625 C-13.03713237 28.06269117 -15.66619824 25.5327637 -18.78515625 22.62890625 C-21.00549374 18.30509113 -21.72317077 13.75347024 -20.27734375 9.05859375 C-18.50148806 5.26916941 -16.73508829 2.37967543 -12.97265625 0.31640625 C-8.59670288 -1.14224487 -4.38163587 -1.51838867 0 0 Z M-13.97265625 10.31640625 C-14.77051613 14.78442156 -14.48999653 16.5639113 -11.91015625 20.31640625 C-9.06537651 22.64626602 -9.06537651 22.64626602 -5.34765625 22.37890625 C-2.02248524 21.56880734 -2.02248524 21.56880734 -0.03515625 19.69140625 C1.48643265 16.29020754 1.54484167 14.00357894 1.02734375 10.31640625 C-1.2585728 7.24674688 -2.72767954 5.62765043 -6.47265625 4.69140625 C-10.21763296 5.62765043 -11.6867397 7.24674688 -13.97265625 10.31640625 Z " fill="#211D1D" transform="translate(290.97265625,302.68359375)"/>
<path d="M0 0 C0.7734375 -0.00257813 1.546875 -0.00515625 2.34375 -0.0078125 C4.5 0.125 4.5 0.125 7.5 1.125 C7.5 3.765 7.5 6.405 7.5 9.125 C6.819375 8.774375 6.13875 8.42375 5.4375 8.0625 C1.6819022 6.86390496 -0.70103588 7.14008338 -4.5 8.125 C-7.0881216 10.37917042 -7.44242643 11.73020979 -7.9375 15.125 C-7.72259472 18.19359345 -7.72259472 18.19359345 -5.8125 20.5 C-3.11209763 22.39758004 -1.72939919 22.48382213 1.5 22.125 C2.16 20.475 2.82 18.825 3.5 17.125 C1.85 17.455 0.2 17.785 -1.5 18.125 C-1.5 15.815 -1.5 13.505 -1.5 11.125 C2.13 11.125 5.76 11.125 9.5 11.125 C9.60832169 13.20718362 9.68573541 15.29099129 9.75 17.375 C9.79640625 18.53515625 9.8428125 19.6953125 9.890625 20.890625 C9.5 24.125 9.5 24.125 7.671875 26.484375 C3.63580535 29.5332046 -0.6136436 29.64324992 -5.5 29.125 C-9.7630053 27.51631876 -12.07869664 25.95134136 -14.5 22.125 C-15.72492931 17.49662785 -16.09642202 12.77851362 -14.375 8.25 C-10.85074508 2.3762418 -6.77752447 -0.02259175 0 0 Z " fill="#4A87CE" transform="translate(167.5,301.875)"/>
<path d="M0 0 C13.91588785 0 13.91588785 0 19 4 C22.00352103 8.03598139 22.54257975 11.84115445 22.34375 16.75390625 C21.7372555 20.71679647 20.49128293 22.80604753 18 26 C11.70619322 29.98179612 8.14599216 29 0 29 C0 19.43 0 9.86 0 0 Z M6 6 C6 11.61 6 17.22 6 23 C9.465 22.505 9.465 22.505 13 22 C15.66183634 18.00724549 15.83907784 14.6954457 15 10 C12.91245648 7.3121661 12.91245648 7.3121661 10 6 C8.68 6 7.36 6 6 6 Z " fill="#211D1D" transform="translate(304,302)"/>
<path d="M0 0 C2.5 0.25 2.5 0.25 4.5 2.25 C4.88721243 6.12212426 4.25245688 9.44406381 3.375 13.1875 C2.37580089 17.81573478 2.93819681 20.73812411 4.5 25.25 C4.82809131 28.59653137 4.80953309 30.55810251 3.4375 33.625 C1.5 35.25 1.5 35.25 -1.9375 35.8125 C-5.5 35.25 -5.5 35.25 -7.8125 33.25 C-11.60839609 26.50174028 -12.46551968 19.73020632 -10.5 12.25 C-4.84809475 0.48480947 -4.84809475 0.48480947 0 0 Z " fill="#211D1D" transform="translate(261.5,138.75)"/>
<path d="M0 0 C1.423125 0.2475 1.423125 0.2475 2.875 0.5 C4.875 3.5 4.875 3.5 4.6328125 5.69921875 C4.42398438 6.52035156 4.21515625 7.34148437 4 8.1875 C2.394576 15.38063349 2.56077462 21.31043633 4.6328125 28.421875 C4.94197088 31.07465338 4.32448811 32.29217043 2.875 34.5 C0.03416359 35.92041821 -1.97977278 35.81452272 -5.125 35.5 C-8.86782714 32.79684706 -10.1369736 29.94611882 -11.125 25.5 C-12.13342729 16.66862164 -9.76381477 9.89802461 -5.25 2.375 C-3.125 0.5 -3.125 0.5 0 0 Z " fill="#211D1D" transform="translate(245.125,138.5)"/>
<path d="M0 0 C1.98 0 3.96 0 6 0 C6.33 2.64 6.66 5.28 7 8 C7.35191406 7.4225 7.70382813 6.845 8.06640625 6.25 C9.59101256 3.9571195 11.04025227 1.93849233 13 0 C16.875 -0.5 16.875 -0.5 20 0 C18.94670765 3.07210269 17.9428383 5.06696084 15.8125 7.5625 C13.76740992 9.73490253 13.76740992 9.73490253 14.1953125 11.76953125 C15.24974801 14.69226268 16.6300489 17.3684629 18.0625 20.125 C21 25.77882353 21 25.77882353 21 28 C18.69 28.33 16.38 28.66 14 29 C12.35 25.7 10.7 22.4 9 19 C8.34 19 7.68 19 7 19 C6.67 22.3 6.34 25.6 6 29 C4.02 28.67 2.04 28.34 0 28 C0 18.76 0 9.52 0 0 Z " fill="#4A87CE" transform="translate(224,302)"/>
<path d="M0 0 C0 2.31 0 4.62 0 7 C-0.75925781 6.90460938 -1.51851563 6.80921875 -2.30078125 6.7109375 C-3.79158203 6.54464844 -3.79158203 6.54464844 -5.3125 6.375 C-6.79169922 6.20097656 -6.79169922 6.20097656 -8.30078125 6.0234375 C-11.22657416 5.74523005 -11.22657416 5.74523005 -14 8 C-14.79554604 11.79414267 -15.27554612 14.65671268 -14.5 18.4375 C-11.9900976 21.05198166 -9.51439747 20.88285342 -6 21 C-2.66500695 20.16830035 -2.66500695 20.16830035 0 19 C0 21.31 0 23.62 0 26 C-4.33683186 28.46835555 -8.10767001 28.56112745 -13 28 C-17.17813746 26.23589752 -19.46622997 23.72245227 -22 20 C-22.89859338 15.0484406 -23.15515074 9.55648115 -21.046875 4.890625 C-15.87187518 -1.72551402 -7.58737706 -2.52912569 0 0 Z " fill="#211D1D" transform="translate(268,303)"/>
<path d="M0 0 C5.28 0 10.56 0 16 0 C16 2.31 16 4.62 16 7 C12.7 6.67 9.4 6.34 6 6 C6 7.65 6 9.3 6 11 C8.64 10.67 11.28 10.34 14 10 C14 11.98 14 13.96 14 16 C11.36 16 8.72 16 6 16 C6 18.31 6 20.62 6 23 C9.3 22.67 12.6 22.34 16 22 C16 23.98 16 25.96 16 28 C10.72 28 5.44 28 0 28 C0 18.76 0 9.52 0 0 Z " fill="#4A87CE" transform="translate(182,302)"/>
<path d="M0 0 C5.28 0 10.56 0 16 0 C15.67 2.31 15.34 4.62 15 7 C12.03 6.67 9.06 6.34 6 6 C6 7.65 6 9.3 6 11 C7.134375 10.814375 8.26875 10.62875 9.4375 10.4375 C11.2009375 10.2209375 11.2009375 10.2209375 13 10 C14 11 14 11 14.0625 13.5625 C14.041875 14.366875 14.02125 15.17125 14 16 C11.36 16 8.72 16 6 16 C6 18.31 6 20.62 6 23 C9.3 22.67 12.6 22.34 16 22 C16 23.98 16 25.96 16 28 C10.72 28 5.44 28 0 28 C0 18.76 0 9.52 0 0 Z " fill="#211D1D" transform="translate(331,302)"/>
<path d="M0 0 C5.28 0 10.56 0 16 0 C15.67 2.31 15.34 4.62 15 7 C12.03 6.67 9.06 6.34 6 6 C6 7.65 6 9.3 6 11 C7.134375 10.814375 8.26875 10.62875 9.4375 10.4375 C11.2009375 10.2209375 11.2009375 10.2209375 13 10 C14 11 14 11 14.0625 13.5625 C14.041875 14.366875 14.02125 15.17125 14 16 C11.36 16 8.72 16 6 16 C6 18.31 6 20.62 6 23 C9.3 22.67 12.6 22.34 16 22 C16 23.98 16 25.96 16 28 C10.72 28 5.44 28 0 28 C0 18.76 0 9.52 0 0 Z " fill="#4A87CE" transform="translate(203,302)"/>
</svg>
